<?xml version="1.0" encoding="utf-8"?>
<!-- Generator: Adobe Illustrator 27.0.1, SVG Export Plug-In . SVG Version: 6.00 Build 0)  -->
<svg version="1.1" id="Layer_1" xmlns="http://www.w3.org/2000/svg" xmlns:xlink="http://www.w3.org/1999/xlink" x="0px" y="0px"
	 viewBox="0 0 464.5 87" style="enable-background:new 0 0 464.5 87;" xml:space="preserve">
<style type="text/css">
	.st0{fill:#1D1D1F;}
	.st1{fill:url(#SVGID_1_);}
	.st2{fill:none;}
	.st3{fill:#FFFFFF;}
</style>
<g>
	<path class="st0" d="M125.7,47.5h-14.4L108,57.7h-6l13.5-37.4h6.3l13.5,37.4h-6L125.7,47.5z M112.8,42.8h11.4l-5.4-16.1l0,0
		L112.8,42.8z M164.9,44c0,8.4-4.5,13.8-11.4,13.8c-3.6,0.3-6.9-1.8-8.4-4.8l0,0v13.5h-5.7v-36h5.4V35l0,0c1.8-3,5.1-4.8,8.7-4.8
		C160.4,30.2,164.9,35.6,164.9,44L164.9,44z M159.2,44c0-5.4-3-9-7.2-9s-7.2,3.6-7.2,9s3,9.3,7.2,9.3S159.2,49.3,159.2,44L159.2,44z
		 M195.1,44c0,8.4-4.5,13.8-11.4,13.8c-3.6,0.3-6.9-1.8-8.7-4.8l0,0v13.5h-5.6v-36h5.4V35l0,0c1.8-3,5.1-4.8,8.7-4.8
		C190.3,30.2,195.1,35.6,195.1,44L195.1,44z M189.1,44c0-5.4-3-9-7.2-9s-7.2,3.6-7.2,9s3,9.3,7.2,9.3
		C186.1,53.2,189.4,49.3,189.1,44L189.1,44z M199.6,20.3h5.7v37.4h-5.7V20.3z M235.4,49.6c-0.6,4.8-5.7,8.4-11.7,8.4
		c-7.8,0-12.9-5.4-12.9-13.8s4.8-14.1,12.6-14.1s12.3,5.1,12.3,13.5v1.8h-19.1v0.3c-0.3,3.9,2.4,7.5,6.3,7.8c0.3,0,0.6,0,0.9,0
		c2.7,0.3,5.4-1.2,6.3-3.9C230.1,49.6,235.4,49.6,235.4,49.6z M216.6,41.6h13.8c0.3-3.6-2.4-6.9-6-6.9c-0.3,0-0.6,0-0.6,0
		C219.6,34.4,216.6,37.7,216.6,41.6C216.6,41.3,216.6,41.3,216.6,41.6L216.6,41.6z M267.4,20.3c6.6-0.3,12,4.5,12.3,11.1
		c0,0.3,0,0.9,0,1.2c0.3,6.6-5.1,12-11.7,12.3c-0.3,0-0.6,0-0.9,0h-7.7v12.6h-5.7V20.3H267.4z M259.4,40.1h6.6
		c4.2,0.3,7.5-3,7.8-6.9c0.3-4.2-3-7.5-6.9-7.8c-0.3,0-0.6,0-0.9,0h-6.6V40.1z M282.4,44c0-8.7,5.1-13.8,12.9-13.8
		s12.9,5.4,12.9,13.8s-4.9,14-13,14S282.4,52.6,282.4,44L282.4,44z M302.4,44c0-6-2.7-9.3-7.2-9.3S288,38.3,288,44s2.7,9.3,7.2,9.3
		S302.4,49.9,302.4,44L302.4,44z M312,44c0-8.4,4.8-13.8,11.4-13.8c3.6-0.3,6.9,1.8,8.7,4.8l0,0V20.3h5.7v37.4h-5.4v-4.8l0,0
		c-1.8,3.3-5.1,5.1-8.7,4.8C316.5,58,312,52.3,312,44L312,44z M317.7,44c0,5.7,2.7,9.3,7.2,9.3s7.2-3.6,7.2-9.3s-3-9-7.2-9
		S317.7,38.6,317.7,44L317.7,44z M361.9,39.8c-0.6-3-3.3-5.4-6.3-5.1c-4.2,0-7.2,3.6-7.2,9.3s3,9.3,7.2,9.3c3,0.3,5.7-1.8,6.3-4.8
		h5.4c-0.6,6-6,10.2-11.7,9.6c-7.8,0-12.9-5.4-12.9-14.1s5.1-13.8,12.9-13.8c6-0.6,11.1,3.9,11.7,9.6L361.9,39.8z M370.9,49.9
		c0-4.8,3.6-7.5,10.5-8.1l7.2-0.3v-2.1c0-3-2.1-4.8-5.7-4.8c-2.4-0.3-4.8,1.5-5.4,3.9h-5.1c0.3-4.8,4.8-8.4,10.8-8.4
		c6.6,0,11.1,3.6,11.1,9v18.5h-5.4v-4.5l0,0c-1.8,3-5.1,5.1-8.7,4.8c-4.5,0.3-8.7-3-9-7.5C371.2,50.2,370.9,50.2,370.9,49.9
		L370.9,49.9z M388.2,47.5v-2.1l-6.6,0.3c-3.6,0.3-5.7,1.5-5.7,3.9s2.1,3.9,5.1,3.9C384.9,53.8,387.9,51.1,388.2,47.5L388.2,47.5
		L388.2,47.5z M410.4,30.2c6,0,10.5,3.3,10.5,8.1h-5.4c-0.3-2.4-2.4-3.9-5.4-3.9S405,35.9,405,38c0,1.5,1.2,2.7,4.2,3.3l4.5,1.2
		c5.4,1.2,7.5,3.3,7.5,7.2c0,4.8-4.8,8.4-11.4,8.4s-10.8-3.3-11.1-8.4h5.7c0.3,2.7,2.4,3.9,6,3.9s5.4-1.5,5.4-3.6s-1.2-2.7-3.9-3.3
		l-4.8-1.2c-4.8-1.2-7.5-3.6-7.5-7.5C399.6,33.5,404.1,30.2,410.4,30.2L410.4,30.2z M433.7,24.2v6.3h5.1V35h-5.1v15
		c0,2.4,1.2,3.3,3.3,3.3c0.6,0,1.2,0,1.8-0.3v4.5c-0.9,0.3-2.1,0.3-3,0.3c-5.4,0-7.8-2.1-7.8-7.5V34.7h-3.9v-4.5h3.9v-6.3
		L433.7,24.2z M453.7,30.2c6,0,10.2,3.3,10.5,8.1h-5.4c-0.3-2.4-2.4-3.9-5.4-3.9s-5.1,1.5-5.1,3.6c0,1.5,1.2,2.7,4.2,3.3l4.5,1.2
		c5.4,1.2,7.5,3.3,7.5,7.2c0,4.8-4.8,8.4-11.4,8.4s-10.8-3.3-11.1-8.4h5.7c0.3,2.7,2.4,3.9,6,3.9s5.4-1.5,5.4-3.6s-0.9-2.7-3.9-3.3
		l-4.8-1.2c-4.8-1.2-7.5-3.6-7.5-7.5C443.3,33.5,447.4,30.2,453.7,30.2L453.7,30.2z"/>
	
		<linearGradient id="SVGID_1_" gradientUnits="userSpaceOnUse" x1="-633.9556" y1="690.2435" x2="-633.0286" y2="690.2435" gradientTransform="matrix(5.670115e-15 92.6 92.6 -5.670115e-15 -63873.0938 58705.5586)">
		<stop  offset="0" style="stop-color:#BA6AAB"/>
		<stop  offset="1" style="stop-color:#78489C"/>
	</linearGradient>
	<path class="st1" d="M85.3,75.4c-2.1,5.1-6.6,9-11.7,10.5c-3.2,0.8-6.8,1.1-10.4,1.1H24c-3.6,0-7.2-0.3-10.5-1.2
		c-5.4-1.5-9.6-5.4-11.7-10.5C0.6,71.4,0,67.2,0,63V23.9c-0.2-4.2,0.4-8.4,1.6-12.2c2.1-5.1,6.6-9,11.7-10.5C16.5,0.3,20.1,0,23.7,0
		h39.2c3.6,0,7.2,0.3,10.5,1.2c5.4,1.5,9.6,5.4,11.7,10.5c1.2,3.9,1.8,8.1,1.8,12.3v39.2C87.1,67.3,86.8,71.5,85.3,75.4z"/>
	<path class="st2" d="M85.3,75.4c-2.1,5.1-6.6,9-11.7,10.5c-3.2,0.8-6.8,1.1-10.4,1.1H24c-3.6,0-7.2-0.3-10.5-1.2
		c-5.4-1.5-9.6-5.4-11.7-10.5C0.6,71.4,0,67.2,0,63V23.9c-0.2-4.2,0.4-8.4,1.6-12.2c2.1-5.1,6.6-9,11.7-10.5C16.5,0.3,20.1,0,23.7,0
		h39.2c3.6,0,7.2,0.3,10.5,1.2c5.4,1.5,9.6,5.4,11.7,10.5c1.2,3.9,1.8,8.1,1.8,12.3v39.2C87.1,67.3,86.8,71.5,85.3,75.4z"/>
	<path class="st3" d="M49.7,49.9c-1.8-1.5-3.9-2.4-6.3-2.4c-2.4,0-4.5,0.6-6.3,2.4c-0.6,0.6-1.2,1.5-1.2,2.4c-0.3,2.1-0.3,4.5,0,6.6
		c0.3,2.7,0.6,6.3,1.2,9.9c0.3,1.8,0.6,3.3,0.9,5.1c1.5,2.7,5.1,3.9,7.8,2.4c0.9-0.6,1.8-1.2,2.4-2.4c0.6-1.5,0.9-3.3,0.9-5.1
		c0.6-3.6,0.9-7.2,1.2-9.9c0.3-2.1,0.3-4.5,0-6.6C50.6,51.7,50.3,50.8,49.7,49.9z M36.3,37.7c0,3.9,3.3,7.2,7.2,7.2s7.2-3.3,7.2-7.2
		s-3.3-7.2-7.2-7.2l0,0C39.6,30.5,36.3,33.8,36.3,37.7L36.3,37.7z M43.5,9.6C26.5,9.6,13,23.4,13,40.1c0,13.2,8.4,24.5,20.6,29
		c0.3,0,0.6,0,0.6-0.3c0,0,0,0,0-0.3c-0.3-1.2-0.3-2.1-0.6-3c0-0.3-0.3-0.6-0.6-0.9c-13.5-6-19.7-21.5-13.8-35.3
		c6-13.5,21.5-19.7,35.3-13.8C68,21.5,74.2,37,68.3,50.8c-2.7,6.3-7.8,11.1-13.8,13.8c-0.3,0-0.6,0.6-0.6,0.9c0,0.9-0.3,2.1-0.6,3
		c0,0.3,0,0.3,0.3,0.6l0,0h0.3c15.8-5.7,24.5-23,18.8-38.9C68.3,17.9,56.6,9.6,43.5,9.6L43.5,9.6z M42.9,23.6
		c9.3-0.3,17,6.9,17.3,15.8V40c0,4.5-1.8,9-5.4,12c-0.3,0.3-0.3,0.6-0.3,0.9c0,1.2,0,2.4,0,3.6c0,0.3,0,0.3,0.3,0.3l0,0h0.3
		c9.3-6.3,11.7-19.1,5.4-28.4c-3.9-5.7-10.2-9-17-9h-0.9c-11.4,0.3-20,9.9-19.7,21.2c0.3,6.6,3.6,12.6,9,16.1c0,0,0.3,0.3,0.6,0l0,0
		v-0.3c0-1.2,0-2.4,0-3.6c0-0.3-0.3-0.9-0.6-0.9c-3.6-3.3-5.4-7.8-5.4-12.6C27,31.1,34.2,23.9,42.9,23.6L42.9,23.6z"/>
</g>
</svg>
