<?xml version="1.0" encoding="utf-8"?>
<!-- Generator: Adobe Illustrator 27.0.1, SVG Export Plug-In . SVG Version: 6.00 Build 0)  -->
<svg version="1.1" id="Layer_1" xmlns="http://www.w3.org/2000/svg" xmlns:xlink="http://www.w3.org/1999/xlink" x="0px" y="0px"
	 viewBox="0 0 86.9 87" style="enable-background:new 0 0 86.9 87;" xml:space="preserve">
<style type="text/css">
	.st0{fill:url(#SVGID_1_);}
	.st1{fill:none;}
	.st2{fill:#FFFFFF;}
</style>
<g>
	
		<linearGradient id="SVGID_1_" gradientUnits="userSpaceOnUse" x1="-451.8908" y1="-594.2781" x2="-450.9638" y2="-594.2781" gradientTransform="matrix(5.670115e-15 92.6 -92.6 5.670115e-15 -54986.6953 41846.3594)">
		<stop  offset="0" style="stop-color:#BA6AAB"/>
		<stop  offset="1" style="stop-color:#78489C"/>
	</linearGradient>
	<path class="st0" d="M85.3,75.4c-2.1,5.1-6.6,9-11.7,10.5c-3.2,0.8-6.8,1.1-10.4,1.1H24c-3.6,0-7.2-0.3-10.5-1.2
		c-5.4-1.5-9.6-5.4-11.7-10.5C0.6,71.4,0,67.2,0,63V23.9c-0.2-4.2,0.4-8.4,1.6-12.2c2.1-5.1,6.6-9,11.7-10.5C16.5,0.3,20.1,0,23.7,0
		h39.2c3.6,0,7.2,0.3,10.5,1.2c5.4,1.5,9.6,5.4,11.7,10.5c1.2,3.9,1.8,8.1,1.8,12.3v39.2C87.1,67.3,86.8,71.5,85.3,75.4z"/>
	<path class="st1" d="M85.3,75.4c-2.1,5.1-6.6,9-11.7,10.5c-3.2,0.8-6.8,1.1-10.4,1.1H24c-3.6,0-7.2-0.3-10.5-1.2
		c-5.4-1.5-9.6-5.4-11.7-10.5C0.6,71.4,0,67.2,0,63V23.9c-0.2-4.2,0.4-8.4,1.6-12.2c2.1-5.1,6.6-9,11.7-10.5C16.5,0.3,20.1,0,23.7,0
		h39.2c3.6,0,7.2,0.3,10.5,1.2c5.4,1.5,9.6,5.4,11.7,10.5c1.2,3.9,1.8,8.1,1.8,12.3v39.2C87.1,67.3,86.8,71.5,85.3,75.4z"/>
	<path class="st2" d="M49.7,49.9c-1.8-1.5-3.9-2.4-6.3-2.4c-2.4,0-4.5,0.6-6.3,2.4c-0.6,0.6-1.2,1.5-1.2,2.4c-0.3,2.1-0.3,4.5,0,6.6
		c0.3,2.7,0.6,6.3,1.2,9.9c0.3,1.8,0.6,3.3,0.9,5.1c1.5,2.7,5.1,3.9,7.8,2.4c0.9-0.6,1.8-1.2,2.4-2.4c0.6-1.5,0.9-3.3,0.9-5.1
		c0.6-3.6,0.9-7.2,1.2-9.9c0.3-2.1,0.3-4.5,0-6.6C50.6,51.7,50.3,50.8,49.7,49.9z M36.3,37.7c0,3.9,3.3,7.2,7.2,7.2s7.2-3.3,7.2-7.2
		s-3.3-7.2-7.2-7.2l0,0C39.6,30.5,36.3,33.8,36.3,37.7L36.3,37.7z M43.5,9.6C26.5,9.6,13,23.4,13,40.1c0,13.2,8.4,24.5,20.6,29
		c0.3,0,0.6,0,0.6-0.3c0,0,0,0,0-0.3c-0.3-1.2-0.3-2.1-0.6-3c0-0.3-0.3-0.6-0.6-0.9c-13.5-6-19.7-21.5-13.8-35.3
		c6-13.5,21.5-19.7,35.3-13.8C68,21.5,74.2,37,68.3,50.8c-2.7,6.3-7.8,11.1-13.8,13.8c-0.3,0-0.6,0.6-0.6,0.9c0,0.9-0.3,2.1-0.6,3
		c0,0.3,0,0.3,0.3,0.6l0,0h0.3c15.8-5.7,24.5-23,18.8-38.9C68.3,17.9,56.6,9.6,43.5,9.6L43.5,9.6z M42.9,23.6
		c9.3-0.3,17,6.9,17.3,15.8V40c0,4.5-1.8,9-5.4,12c-0.3,0.3-0.3,0.6-0.3,0.9c0,1.2,0,2.4,0,3.6c0,0.3,0,0.3,0.3,0.3l0,0h0.3
		c9.3-6.3,11.7-19.1,5.4-28.4c-3.9-5.7-10.2-9-17-9h-0.9c-11.4,0.3-20,9.9-19.7,21.2c0.3,6.6,3.6,12.6,9,16.1c0,0,0.3,0.3,0.6,0l0,0
		v-0.3c0-1.2,0-2.4,0-3.6c0-0.3-0.3-0.9-0.6-0.9c-3.6-3.3-5.4-7.8-5.4-12.6C27,31.1,34.2,23.9,42.9,23.6L42.9,23.6z"/>
</g>
</svg>
