<?xml version="1.0" encoding="utf-8"?>
<!-- Generator: Adobe Illustrator 27.0.1, SVG Export Plug-In . SVG Version: 6.00 Build 0)  -->
<svg version="1.1" id="Layer_1" xmlns="http://www.w3.org/2000/svg" xmlns:xlink="http://www.w3.org/1999/xlink" x="0px" y="0px"
	 viewBox="0 0 473.7 87" style="enable-background:new 0 0 473.7 87;" xml:space="preserve">
<style type="text/css">
	.st0{fill:#FAB911;}
	.st1{fill:#2D64AD;}
	.st2{fill:#527BBD;}
	.st3{fill:#E84436;}
	.st4{fill:#34A953;}
	.st5{fill:#3B4043;}
</style>
<g>
	<g>
		<path class="st0" d="M49,59.4V27.7H38.2v31.7H49z"/>
		<circle class="st1" cx="81.6" cy="46.5" r="5.5"/>
		<circle class="st1" cx="81.6" cy="40.5" r="5.5"/>
		<path class="st1" d="M87,46.5H76.1v-5.9H87V46.5z"/>
		<circle class="st2" cx="5.5" cy="40.5" r="5.5"/>
		<circle class="st2" cx="5.5" cy="46.5" r="5.5"/>
		<path class="st2" d="M10.9,46.5H0v-5.9h10.9V46.5L10.9,46.5z"/>
		<circle class="st3" cx="62.8" cy="28.7" r="5.5"/>
		<circle class="st3" cx="62.8" cy="22.8" r="5.5"/>
		<path class="st3" d="M68.3,28.7H57.4v-5.9h10.9C68.3,22.8,68.3,28.7,68.3,28.7z"/>
		<circle class="st3" cx="62.8" cy="64.3" r="5.5"/>
		<circle class="st3" cx="62.8" cy="45" r="5.5"/>
		<path class="st3" d="M68.3,64.3H57.4V44.8h10.9V64.3z"/>
		<circle class="st4" cx="24.3" cy="58.3" r="5.5"/>
		<circle class="st4" cx="24.3" cy="64.3" r="5.5"/>
		<path class="st4" d="M29.6,64.3H18.8v-5.9h10.9L29.6,64.3L29.6,64.3z"/>
		<circle class="st0" cx="43.5" cy="75.6" r="5.5"/>
		<circle class="st0" cx="43.5" cy="81.6" r="5.5"/>
		<path class="st0" d="M49,81.6H38.2v-5.9H49V81.6z"/>
		<circle class="st0" cx="43.5" cy="5.5" r="5.5"/>
		<circle class="st0" cx="43.5" cy="11.4" r="5.5"/>
		<path class="st0" d="M49,11.4H38.2V5.5H49V11.4z"/>
		<circle class="st4" cx="24.3" cy="22.8" r="5.5"/>
		<circle class="st4" cx="24.3" cy="42" r="5.5"/>
		<path class="st4" d="M29.6,42H18.8V22.8h10.9L29.6,42L29.6,42z"/>
		<circle class="st0" cx="43.5" cy="59.4" r="5.5"/>
		<circle class="st0" cx="43.5" cy="27.7" r="5.5"/>
	</g>
	<g>
		<path class="st5" d="M286.4,57.8h-4.6V21.5h12.3c3.1,0,5.7,1.1,7.9,3.1c2.3,2,3.3,4.6,3.3,7.7s-1.1,5.6-3.3,7.7
			c-2.2,2-5,3.1-7.9,3.1h-7.7L286.4,57.8L286.4,57.8z M286.4,38.6h7.7c2,0,3.5-0.7,4.8-2c1.1-1.3,1.7-2.8,1.7-4.3s-0.6-3.1-1.8-4.3
			c-1.1-1.3-2.8-2-4.7-2h-7.7V38.6z M309.3,36c2.4-2.5,5.5-3.8,9.2-3.8s6.8,1.2,9.2,3.7c2.4,2.5,3.5,5.6,3.5,9.5
			c0,3.7-1.1,6.9-3.5,9.4s-5.5,3.7-9.2,3.7s-6.7-1.2-9.2-3.7c-2.4-2.5-3.6-5.6-3.6-9.4C305.7,41.6,306.9,38.4,309.3,36L309.3,36
			L309.3,36z M312.8,51.8c3,3.2,7.9,3.3,11.1,0.3c0.1-0.1,0.2-0.2,0.3-0.3c1.6-1.6,2.4-3.8,2.4-6.5s-0.8-4.9-2.4-6.5
			s-3.4-2.5-5.7-2.5c-2.2,0-4.1,0.9-5.7,2.5s-2.4,3.8-2.4,6.5C310.4,48,311.2,50.2,312.8,51.8L312.8,51.8z M345.2,58.5
			c-3.2,0-5.9-1.2-8.3-3.7c-2.3-2.6-3.6-5.9-3.4-9.4c0-3.7,1.1-6.9,3.4-9.4c3.3-3.9,8.9-5,13.4-2.6c1.5,0.8,2.6,1.8,3.3,3h0.2
			l-0.2-3.4V21.5h4.6v36.2h-4.4v-3.4h-0.2c-0.8,1.1-1.8,2.2-3.3,3.1C348.8,58.1,347.1,58.5,345.2,58.5L345.2,58.5z M346,54.3
			c2.2,0,4-0.8,5.5-2.4c1.6-1.6,2.3-3.8,2.3-6.5c0-2.8-0.8-4.9-2.3-6.5c-1.6-1.6-3.4-2.5-5.6-2.5c-2.1,0-4,0.8-5.5,2.5
			c-1.6,1.6-2.4,3.8-2.4,6.5c0,2.8,0.8,4.9,2.4,6.5C341.9,53.5,343.9,54.3,346,54.3L346,54.3z M374.5,58.5c-3.7,0-6.8-1.2-9.2-3.7
			c-2.4-2.5-3.5-5.6-3.5-9.4s1.1-6.9,3.5-9.5c2.4-2.5,5.5-3.7,9.2-3.7c4.8-0.2,9.1,2.7,10.9,7.1l-4.3,1.8c-1.1-3-3.8-4.9-6.9-4.7
			c-2,0-3.9,0.9-5.5,2.5c-1.6,1.7-2.3,3.8-2.3,6.4c0,2.6,0.8,4.8,2.4,6.4c1.6,1.7,3.3,2.5,5.5,2.5c3.4,0,5.8-1.6,7.2-4.7l4.1,1.8
			C383.6,55.8,379.2,58.7,374.5,58.5L374.5,58.5z M396.5,58.5c-2.7,0-4.9-0.8-6.6-2.3s-2.8-3.7-2.7-6c0-2.7,1.1-4.8,3.2-6.3
			c2.3-1.6,5-2.4,7.7-2.3c2.8,0,5,0.5,6.7,1.5v-0.7c0-1.8-0.7-3.3-1.9-4.3c-1.2-1.1-2.9-1.7-4.6-1.6c-1.3,0-2.6,0.3-3.6,1
			c-1.1,0.7-1.8,1.5-2.3,2.6l-4.2-1.8c0.6-1.4,1.7-2.9,3.4-4.1c1.6-1.2,3.9-1.9,6.6-1.9c3.2,0,5.8,1,7.9,2.8s3.2,4.5,3.2,7.8v15
			h-4.5v-3.4h-0.2C403,57.1,399.8,58.7,396.5,58.5L396.5,58.5L396.5,58.5L396.5,58.5z M397.3,54.3c1.9,0,3.6-0.7,5.3-2.1
			c1.6-1.4,2.4-3.2,2.4-5.1c-1.3-1.1-3.3-1.6-5.9-1.6c-2.3,0-3.9,0.5-5.2,1.4c-1.1,1-1.7,2.1-1.7,3.4c0,1.2,0.6,2.2,1.6,2.9
			C394.7,53.9,396,54.3,397.3,54.3L397.3,54.3L397.3,54.3z M422.9,58.5c-4.8,0.2-9.1-2.7-10.8-7.1l4.1-1.7c1.3,3.1,3.5,4.7,6.7,4.7
			c1.4,0,2.6-0.4,3.5-1s1.4-1.5,1.3-2.5c0-1.6-1.1-2.7-3.4-3.3l-5-1.1c-1.6-0.5-3.2-1.2-4.5-2.3c-1.4-1.1-2.2-2.8-2.1-4.6
			c0-2.2,1-3.9,3-5.4s4.4-2.1,6.9-2.1c2.2,0,4.1,0.5,5.9,1.5c1.7,1,3,2.4,3.6,4.3l-4,1.6c-1-2.2-2.8-3.3-5.6-3.3
			c-1.3,0-2.6,0.3-3.5,0.9c-1,0.6-1.3,1.3-1.3,2.3c0,1.4,1.1,2.4,3.3,2.9l4.9,1.1c2.3,0.5,4,1.4,5.2,2.8c1.1,1.3,1.6,2.8,1.6,4.5
			c0,2.2-1,4.1-2.8,5.5C428.1,57.8,425.8,58.5,422.9,58.5L422.9,58.5z M446.7,58.1c-2.6,0-4.6-0.7-5.9-2c-1.4-1.6-2.2-3.7-2-5.9v-13
			h-4.3v-4.3h4.3v-7.6h4.7v7.6h6v4.3h-6v12.6c0,2.7,1.1,4,3.3,4c0.9,0,1.6-0.2,2.1-0.4l1.6,3.9C449.3,57.9,448.1,58.1,446.7,58.1
			L446.7,58.1L446.7,58.1z M462.9,58.5c-4.8,0.2-9.1-2.7-10.8-7.1l4.1-1.7c1.3,3.1,3.5,4.7,6.7,4.7c1.4,0,2.6-0.4,3.5-1
			s1.4-1.5,1.3-2.5c0-1.6-1.1-2.7-3.4-3.3l-5-1.1c-1.6-0.5-3.2-1.2-4.5-2.3c-1.4-1.1-2.2-2.8-2.1-4.6c0-2.2,1-3.9,3-5.4
			s4.4-2.1,6.9-2.1c2.2,0,4.1,0.5,5.9,1.5c1.7,1,3,2.4,3.6,4.3l-4,1.6c-1-2.2-2.8-3.3-5.6-3.3c-1.3,0-2.6,0.3-3.5,0.9
			c-1,0.6-1.3,1.3-1.3,2.3c0,1.4,1.1,2.4,3.3,2.9l4.9,1.1c2.3,0.5,4,1.4,5.2,2.8c1.1,1.3,1.6,2.8,1.6,4.5c0,2.2-1,4.1-2.8,5.5
			C468.1,57.8,465.8,58.5,462.9,58.5L462.9,58.5z M105.1,37.8c0-11.5,9.6-20.8,21-20.8c5.4-0.1,10.4,2,14.2,5.7l-4,3.9
			c-5.9-5.6-15.4-5.4-21,0.6c-2.7,2.8-4.1,6.5-4,10.4c0,8.3,6.5,15.1,14.8,15.1c3.9,0.2,7.7-1.3,10.5-4.1c1.6-1.6,2.7-3.9,3.1-7.1
			h-13.6V36h19.1c0.2,1.1,0.3,2.2,0.3,3.5c0.2,4.9-1.6,9.7-4.9,13.3c-3.8,3.9-9.1,6-14.5,5.8C114.7,58.5,105.3,49.2,105.1,37.8
			L105.1,37.8z M160.7,32c7.3-0.1,13.3,5.6,13.4,12.9c0,0.1,0,0.3,0,0.4c0.1,7.3-5.7,13.3-13,13.4c-0.2,0-0.3,0-0.5,0
			c-7.3,0.1-13.3-5.7-13.4-13c0-0.1,0-0.3,0-0.4c-0.1-7.3,5.6-13.2,12.9-13.3C160.5,32,160.6,32,160.7,32z M160.7,53.5
			c4,0,7.6-3.3,7.6-8.1s-3.5-8.1-7.6-8.1s-7.6,3.3-7.6,8.1C153.2,50.1,156.7,53.5,160.7,53.5z M190,32c7.3-0.1,13.3,5.7,13.4,13
			c0,0.1,0,0.2,0,0.4c0.1,7.3-5.7,13.3-13,13.4c-0.1,0-0.3,0-0.4,0c-7.3,0.1-13.3-5.6-13.4-12.9c0-0.2,0-0.3,0-0.5
			c-0.1-7.3,5.6-13.2,12.9-13.3C189.7,32,189.8,32,190,32z M190,53.5c4,0,7.6-3.3,7.6-8.1s-3.4-8.1-7.6-8.1c-4.1,0-7.6,3.3-7.6,8.1
			C182.4,50.1,186,53.5,190,53.5L190,53.5z M225.9,32.5h5.6v23.9c0,9.8-5.8,14-12.7,14c-5.2,0-9.8-3.1-11.9-7.9l5.2-2.1
			c0.9,2.2,3.1,4.8,6.7,4.8c4.3,0,7.1-2.8,7.1-7.8v-1.9h-0.2c-1.8,2-4.4,3.2-7.1,3.1c-7.2-0.2-12.8-6.1-12.8-13.3
			c0-7.6,6.1-13.4,12.8-13.4c3.2,0,5.7,1.4,7.1,3h0.2L225.9,32.5L225.9,32.5z M219.2,53.1c3.9,0,7.1-3.3,7.1-8s-3.2-8.1-7.1-8.1
			c-4,0-7.5,3.4-7.5,8.1S215.2,53.1,219.2,53.1z M235.5,57.9V18.6h5.8v39.2L235.5,57.9L235.5,57.9z M257.4,53.5c3,0,5.1-1.5,6.6-3.7
			l4.6,3.1c-2.5,3.7-6.7,5.9-11.2,5.9c-7.2,0.1-13.1-5.6-13.2-12.9c0-0.2,0-0.3,0-0.5c0-7.9,5.7-13.3,12.6-13.3s10.3,5.5,11.4,8.4
			l0.6,1.5l-17.9,7.4C252.3,52.1,254.5,53.5,257.4,53.5L257.4,53.5z M257,37.2c-3.1,0-7.2,2.7-7.1,7.7l12-5
			C261.2,38.3,259.3,37.2,257,37.2L257,37.2z"/>
	</g>
</g>
</svg>
