<?xml version="1.0" encoding="utf-8"?>
<!-- Generator: Adobe Illustrator 27.0.1, SVG Export Plug-In . SVG Version: 6.00 Build 0)  -->
<svg version="1.1" id="Layer_1" xmlns="http://www.w3.org/2000/svg" xmlns:xlink="http://www.w3.org/1999/xlink" x="0px" y="0px"
	 viewBox="0 0 87 87" style="enable-background:new 0 0 87 87;" xml:space="preserve">
<style type="text/css">
	.st0{fill:#FAB911;}
	.st1{fill:#2D64AD;}
	.st2{fill:#527BBD;}
	.st3{fill:#E84436;}
	.st4{fill:#34A953;}
</style>
<g>
	<g>
		<path class="st0" d="M49,59.4V27.7H38.2v31.7H49z"/>
		<circle class="st1" cx="81.6" cy="46.5" r="5.5"/>
		<circle class="st1" cx="81.6" cy="40.5" r="5.5"/>
		<path class="st1" d="M87,46.5H76.1v-5.9H87V46.5z"/>
		<circle class="st2" cx="5.5" cy="40.5" r="5.5"/>
		<circle class="st2" cx="5.5" cy="46.5" r="5.5"/>
		<path class="st2" d="M10.9,46.5H0v-5.9h10.9V46.5L10.9,46.5z"/>
		<circle class="st3" cx="62.8" cy="28.7" r="5.5"/>
		<circle class="st3" cx="62.8" cy="22.8" r="5.5"/>
		<path class="st3" d="M68.3,28.7H57.4v-5.9h10.9C68.3,22.8,68.3,28.7,68.3,28.7z"/>
		<circle class="st3" cx="62.8" cy="64.3" r="5.5"/>
		<circle class="st3" cx="62.8" cy="45" r="5.5"/>
		<path class="st3" d="M68.3,64.3H57.4V44.8h10.9V64.3z"/>
		<circle class="st4" cx="24.3" cy="58.3" r="5.5"/>
		<circle class="st4" cx="24.3" cy="64.3" r="5.5"/>
		<path class="st4" d="M29.6,64.3H18.8v-5.9h10.9L29.6,64.3L29.6,64.3z"/>
		<circle class="st0" cx="43.5" cy="75.6" r="5.5"/>
		<circle class="st0" cx="43.5" cy="81.6" r="5.5"/>
		<path class="st0" d="M49,81.6H38.2v-5.9H49V81.6z"/>
		<circle class="st0" cx="43.5" cy="5.5" r="5.5"/>
		<circle class="st0" cx="43.5" cy="11.4" r="5.5"/>
		<path class="st0" d="M49,11.4H38.2V5.5H49V11.4z"/>
		<circle class="st4" cx="24.3" cy="22.8" r="5.5"/>
		<circle class="st4" cx="24.3" cy="42" r="5.5"/>
		<path class="st4" d="M29.6,42H18.8V22.8h10.9L29.6,42L29.6,42z"/>
		<circle class="st0" cx="43.5" cy="59.4" r="5.5"/>
		<circle class="st0" cx="43.5" cy="27.7" r="5.5"/>
	</g>
</g>
</svg>
