<?xml version="1.0" encoding="utf-8"?>
<!-- Generator: Adobe Illustrator 27.0.1, SVG Export Plug-In . SVG Version: 6.00 Build 0)  -->
<svg version="1.1" id="Layer_1" xmlns="http://www.w3.org/2000/svg" xmlns:xlink="http://www.w3.org/1999/xlink" x="0px" y="0px"
	 viewBox="0 0 30 30" style="enable-background:new 0 0 30 30;" xml:space="preserve">
<style type="text/css">
	.st0{fill-rule:evenodd;clip-rule:evenodd;}
</style>
<path class="st0" d="M20.9,10c2,1.5,4.5,2.3,7.2,2.3v-4V7.2c-1.4,0-2.8-0.4-3.9-1.2c-1.6-1-2.8-2.7-3.2-4.7C21,0.9,20.9,0.5,20.9,0
	h-5.2v20.7c-0.1,2.3-2,4.2-4.3,4.2c-0.7,0-1.4-0.2-2-0.5c-1.4-0.7-2.3-2.2-2.3-3.8c0-2.4,2-4.3,4.3-4.3c0.4,0,0.9,0.1,1.3,0.2v-4
	v-1.2c-0.4-0.1-0.8-0.1-1.3-0.1c-5.3,0-9.5,4.2-9.5,9.5c0,3.2,1.6,6.1,4.1,7.8c1.6,1.1,3.4,1.7,5.5,1.7c5.2,0,9.5-4.2,9.5-9.5V10z
	 M11.4,25.9c0.5,0.2,1,0.3,1.5,0.3C12.4,26.1,11.9,26.1,11.4,25.9z"/>
</svg>
