<?xml version="1.0" encoding="utf-8"?>
<!-- Generator: Adobe Illustrator 27.0.1, SVG Export Plug-In . SVG Version: 6.00 Build 0)  -->
<svg version="1.1" id="Layer_1" xmlns="http://www.w3.org/2000/svg" xmlns:xlink="http://www.w3.org/1999/xlink" x="0px" y="0px"
	 viewBox="0 0 30 30" style="enable-background:new 0 0 30 30;" xml:space="preserve">
<style type="text/css">
	.st0{fill-rule:evenodd;clip-rule:evenodd;}
</style>
<path class="st0" d="M8.7,0.1C10.3,0,10.8,0,14.8,0c4,0,4.5,0,6.1,0.1c1.6,0.1,2.7,0.3,3.6,0.7c1,0.4,1.9,1,2.6,1.7
	c0.8,0.7,1.3,1.7,1.7,2.7c0.4,1,0.6,2,0.7,3.6c0.1,1.6,0.1,2.1,0.1,6.2c0,4.1,0,4.6-0.1,6.2c-0.1,1.6-0.3,2.7-0.7,3.6
	c-0.4,1-1,1.9-1.7,2.7c-0.7,0.8-1.6,1.4-2.6,1.7c-0.9,0.4-2,0.6-3.6,0.7C19.3,30,18.8,30,14.8,30c-4,0-4.5,0-6.1-0.1
	c-1.6-0.1-2.6-0.3-3.6-0.7c-1-0.4-1.9-1-2.6-1.7c-0.8-0.7-1.3-1.7-1.7-2.7c-0.4-1-0.6-2-0.7-3.6C0,19.6,0,19.1,0,15
	c0-4.1,0-4.6,0.1-6.2c0.1-1.6,0.3-2.7,0.7-3.6c0.4-1,1-1.9,1.7-2.7c0.7-0.8,1.6-1.4,2.6-1.7C6,0.4,7.1,0.2,8.7,0.1L8.7,0.1z
	 M20.8,2.8c-1.6-0.1-2-0.1-6-0.1s-4.4,0-6,0.1C7.4,2.9,6.6,3.1,6.1,3.3C5.4,3.6,4.9,3.9,4.4,4.4C3.9,4.9,3.5,5.5,3.3,6.2
	C3.1,6.7,2.8,7.5,2.8,8.9C2.7,10.5,2.7,11,2.7,15s0,4.5,0.1,6.1c0.1,1.5,0.3,2.3,0.5,2.8c0.2,0.7,0.6,1.2,1.1,1.7
	c0.5,0.5,1.1,0.9,1.7,1.1c0.5,0.2,1.3,0.5,2.7,0.5c1.6,0.1,2,0.1,6,0.1c3.9,0,4.4,0,6-0.1c1.4-0.1,2.2-0.3,2.7-0.5
	c0.7-0.3,1.2-0.6,1.7-1.1c0.5-0.5,0.9-1.1,1.1-1.7c0.2-0.5,0.4-1.3,0.5-2.8c0.1-1.6,0.1-2.1,0.1-6.1s0-4.5-0.1-6.1
	c-0.1-1.5-0.3-2.3-0.5-2.8c-0.3-0.7-0.6-1.2-1.1-1.7c-0.5-0.5-1.1-0.9-1.7-1.1C23,3.1,22.2,2.9,20.8,2.8z M12.9,19.6
	c1.1,0.4,2.2,0.5,3.3,0.2c1.1-0.3,2-1,2.7-2c0.6-1,0.9-2.1,0.8-3.3s-0.6-2.2-1.4-3c-0.5-0.5-1.1-0.9-1.8-1.2C15.8,10,15,9.9,14.3,10
	c-0.7,0.1-1.4,0.3-2.1,0.7c-0.6,0.4-1.2,0.9-1.6,1.5c-0.4,0.6-0.7,1.3-0.8,2c-0.1,0.7-0.1,1.5,0.2,2.2c0.2,0.7,0.6,1.4,1.1,1.9
	C11.6,18.9,12.2,19.3,12.9,19.6z M9.4,9.5c0.7-0.7,1.5-1.3,2.5-1.7c0.9-0.4,1.9-0.6,2.9-0.6s2,0.2,2.9,0.6c0.9,0.4,1.8,1,2.5,1.7
	c0.7,0.7,1.3,1.6,1.6,2.5c0.4,0.9,0.6,1.9,0.6,3s-0.2,2-0.6,3c-0.4,0.9-0.9,1.8-1.6,2.5c-1.4,1.4-3.4,2.3-5.4,2.3
	c-2,0-3.9-0.8-5.4-2.3C8,19,7.2,17,7.2,15S8,11,9.4,9.5z M24.1,8.4c0.2-0.2,0.3-0.4,0.4-0.6c0.1-0.2,0.1-0.5,0.2-0.7
	c0-0.2,0-0.5-0.1-0.7S24.3,6,24.1,5.8s-0.4-0.3-0.6-0.4c-0.2-0.1-0.5-0.1-0.7-0.1c-0.2,0-0.5,0.1-0.7,0.2c-0.2,0.1-0.4,0.2-0.6,0.4
	c-0.3,0.3-0.5,0.8-0.5,1.3c0,0.5,0.2,0.9,0.5,1.3s0.8,0.5,1.2,0.5C23.3,8.9,23.7,8.8,24.1,8.4z"/>
</svg>
