<?xml version="1.0" encoding="utf-8"?>
<!-- Generator: Adobe Illustrator 27.0.1, SVG Export Plug-In . SVG Version: 6.00 Build 0)  -->
<svg version="1.1" id="Layer_1" xmlns="http://www.w3.org/2000/svg" xmlns:xlink="http://www.w3.org/1999/xlink" x="0px" y="0px"
	 viewBox="0 0 30 30" style="enable-background:new 0 0 30 30;" xml:space="preserve">
<path d="M25.8,0H4.2C1.9,0,0,1.9,0,4.2v21.6C0,28.1,1.9,30,4.2,30h21.6c2.3,0,4.2-1.9,4.2-4.2V4.2C30,1.9,28.1,0,25.8,0z M10.2,24
	c0,0.3-0.3,0.6-0.6,0.6h-3C6.3,24.6,6,24.3,6,24V12.6C6,12.3,6.3,12,6.6,12h3c0.3,0,0.6,0.3,0.6,0.6V24z M8.1,10.8
	c-1.5,0-2.7-1.2-2.7-2.7c0-1.5,1.2-2.7,2.7-2.7c1.5,0,2.7,1.2,2.7,2.7C10.8,9.6,9.6,10.8,8.1,10.8z M24.3,17.4V24
	c0,0.3-0.3,0.6-0.6,0.6H21c-0.3,0-0.6-0.3-0.6-0.6v-6.6c0-1.3-0.8-2.4-2.2-2.4s-2.3,1.1-2.3,2.4V24c0,0.3-0.3,0.6-0.6,0.6h-2.7
	c-0.3,0-0.6-0.3-0.6-0.6V12.6c0-0.3,0.3-0.6,0.6-0.6h2.7c0.3,0,0.6,0.3,0.6,0.6v0.6c1.2-1.5,3.1-1.8,4.5-1.5
	C23.8,12.3,24.4,15.5,24.3,17.4z"/>
</svg>
