<?xml version="1.0" encoding="utf-8"?>
<!-- Generator: Adobe Illustrator 27.0.1, SVG Export Plug-In . SVG Version: 6.00 Build 0)  -->
<svg version="1.1" id="Layer_1" xmlns="http://www.w3.org/2000/svg" xmlns:xlink="http://www.w3.org/1999/xlink" x="0px" y="0px"
	 viewBox="0 0 30 30" style="enable-background:new 0 0 30 30;" xml:space="preserve">
<style type="text/css">
	.st0{fill:#FFFFFF;}
</style>
<path class="st0" d="M15,0C6.7,0,0,6.7,0,15c0,7.5,5.5,13.7,12.6,14.8c0,0,0-0.1,0-0.1V19.5c0-0.2-0.1-0.3-0.3-0.3h-3
	c-0.2,0-0.3-0.1-0.3-0.3v-3.6C9,15.1,9.1,15,9.3,15h3c0.2,0,0.3-0.1,0.3-0.3v-3.9C12.6,9,14.5,6,17.4,6h3.9c0.2,0,0.3,0.1,0.3,0.3
	v3.6c0,0.2-0.1,0.3-0.3,0.3h-1.8c-0.6,0-2.1,0.6-2.1,1.8v2.7c0,0.2,0.1,0.3,0.3,0.3h3c0.2,0,0.3,0.1,0.3,0.3v3.6
	c0,0.2-0.1,0.3-0.3,0.3h-3c-0.2,0-0.3,0.1-0.3,0.3v10.2c0,0,0,0.1,0,0.1C24.5,28.7,30,22.5,30,15C30,6.7,23.3,0,15,0z"/>
</svg>
