<?xml version="1.0" encoding="utf-8"?>
<!-- Generator: Adobe Illustrator 27.0.1, SVG Export Plug-In . SVG Version: 6.00 Build 0)  -->
<svg version="1.1" id="Layer_1" xmlns="http://www.w3.org/2000/svg" xmlns:xlink="http://www.w3.org/1999/xlink" x="0px" y="0px"
	 viewBox="0 0 225 36" style="enable-background:new 0 0 225 36;" xml:space="preserve">
<style type="text/css">
	.st0{fill:#FFFFFF;}
</style>
<path class="st0" d="M8.7,35.6c-4.7,0-7.8-2.9-7.8-7.3v-5h6v5c0,1.1,0.7,1.8,1.8,1.8c1.1,0,1.8-0.7,1.8-1.8v-3.9
	c0-4-9.6-4.6-9.6-12.3v-4C1,3.7,4,0.8,8.7,0.8s7.8,2.9,7.8,7.2v4.5h-6V8c0-1-0.7-1.7-1.7-1.7C7.7,6.3,7,7,7,8v3.4
	c0,4,9.6,4.6,9.6,12.3v4.6C16.6,32.6,13.4,35.6,8.7,35.6z M21.3,35V6.9h-3.5V1.4h13v5.5h-3.5V35H21.3z M32.6,35V1.4H44v5.5h-5.4v8.4
	h4.8v5.4h-4.8v8.8H44V35H32.6z M49.2,35L45.4,1.4h6.3l1.8,24.1V29h0.8v-3.5l1.8-24.1h6L58.4,35H49.2z M64,35V1.4h11.4v5.5h-5.4v8.4
	h4.8v5.4h-4.8v8.8h5.4V35H64z M77.7,35V1.4h7l3.5,15.9l0.5,4.2h0.8l-0.5-4.2V1.4h6V35H88l-3.5-15.9L84,14.8h-0.8l0.5,4.2V35H77.7z
	 M104.4,35V1.4h8.5c4.3,0,7.2,2.6,7.2,6.6v4.6c0,2-0.9,4.1-2.8,4.9v0.3c2,0.9,3.1,3,3.1,5.2v5.5c0,3.9-2.8,6.6-7.2,6.6H104.4z
	 M112.2,6.9h-1.8v8.4h1.8c1.1,0,1.8-0.7,1.8-1.8V8.7C114.1,7.6,113.4,6.9,112.2,6.9z M112.6,20.5h-2.1v9h2.1c1.1,0,1.8-0.7,1.8-1.8
	v-5.4C114.4,21.2,113.6,20.5,112.6,20.5z M121.2,35l4.1-33.6h9.3l4,33.6h-6.4l-0.7-8.1H128l-0.7,8.1H121.2z M129.4,10.2l-1,11.7h2.8
	l-1-11.7V7.4h-0.8V10.2z M140.2,35V1.4h8.4c4.4,0,7.3,2.7,7.3,6.8v7.4c0,2.2-0.9,4-2.5,5.2l3.1,14.2h-6.1L148,22.2h-1.7V35H140.2z
	 M148.1,6.9h-1.8V17h1.8c1.1,0,1.8-0.7,1.8-1.8V8.7C149.9,7.6,149.2,6.9,148.1,6.9z M160.6,35V6.9h-3.5V1.4h13v5.5h-3.5V35H160.6z
	 M171.9,35V1.4h6v28.1h5.1V35H171.9z M184.8,35V1.4h11.4v5.5h-5.4v8.4h4.8v5.4h-4.8v8.8h5.4V35H184.8z M201.2,35V6.9h-3.5V1.4h13
	v5.5h-3.5V35H201.2z M215.3,35V6.9h-3.5V1.4h13v5.5h-3.5V35H215.3z"/>
</svg>
