<?xml version="1.0" encoding="utf-8"?>
<!-- Generator: Adobe Illustrator 27.0.1, SVG Export Plug-In . SVG Version: 6.00 Build 0)  -->
<svg version="1.1" id="Layer_1" xmlns="http://www.w3.org/2000/svg" xmlns:xlink="http://www.w3.org/1999/xlink" x="0px" y="0px"
	 viewBox="0 0 87 87" style="enable-background:new 0 0 87 87;" xml:space="preserve">
<style type="text/css">
	.st0{fill:#1ED760;}
</style>
<path class="st0" d="M43.5,0C19.5,0,0,19.5,0,43.5S19.5,87,43.5,87S87,67.5,87,43.5S67.5,0,43.5,0L43.5,0z M63.5,62.8
	c-0.8,1.3-2.5,1.7-3.7,0.9c-10.2-6.2-23.1-7.7-38.2-4.2c-1.5,0.3-2.9-0.6-3.2-2c-0.3-1.5,0.6-2.9,2-3.2c16.6-3.8,30.8-2.2,42.3,4.9
	C63.8,59.8,64.2,61.5,63.5,62.8z M68.8,50.9c-1,1.6-3.1,2.1-4.7,1.1c-11.7-7.2-29.5-9.3-43.4-5.1c-1.8,0.5-3.7-0.5-4.2-2.3
	s0.5-3.7,2.3-4.2c15.8-4.8,35.4-2.5,48.9,5.8C69.3,47.2,69.8,49.3,68.8,50.9L68.8,50.9z M69.2,38.6c-14-8.3-37.2-9.1-50.5-5
	c-2.1,0.7-4.4-0.6-5.1-2.7c-0.7-2.2,0.6-4.4,2.7-5.1c15.4-4.7,40.9-3.8,57.1,5.8c1.9,1.1,2.6,3.6,1.4,5.6
	C73.7,39.1,71.2,39.7,69.2,38.6L69.2,38.6z"/>
</svg>
