<?xml version="1.0" encoding="utf-8"?>
<!-- Generator: Adobe Illustrator 27.0.1, SVG Export Plug-In . SVG Version: 6.00 Build 0)  -->
<svg version="1.1" id="Layer_1" xmlns="http://www.w3.org/2000/svg" xmlns:xlink="http://www.w3.org/1999/xlink" x="0px" y="0px"
	 viewBox="0 0 290.1 87" style="enable-background:new 0 0 290.1 87;" xml:space="preserve">
<style type="text/css">
	.st0{fill:#1ED760;}
</style>
<path class="st0" d="M43.5,0C19.5,0,0,19.5,0,43.5S19.5,87,43.5,87S87,67.5,87,43.5S67.5,0,43.5,0L43.5,0z M63.5,62.8
	c-0.8,1.3-2.5,1.7-3.7,0.9c-10.2-6.2-23.1-7.7-38.2-4.2c-1.5,0.3-2.9-0.6-3.2-2c-0.3-1.5,0.6-2.9,2-3.2c16.6-3.8,30.8-2.2,42.3,4.9
	C63.8,59.8,64.2,61.5,63.5,62.8z M68.8,50.9c-1,1.6-3.1,2.1-4.7,1.1c-11.7-7.2-29.5-9.3-43.4-5.1c-1.8,0.5-3.7-0.5-4.2-2.3
	s0.5-3.7,2.3-4.2c15.8-4.8,35.4-2.5,48.9,5.8C69.3,47.2,69.8,49.3,68.8,50.9L68.8,50.9z M69.2,38.6c-14-8.3-37.2-9.1-50.5-5
	c-2.1,0.7-4.4-0.6-5.1-2.7c-0.7-2.2,0.6-4.4,2.7-5.1c15.4-4.7,40.9-3.8,57.1,5.8c1.9,1.1,2.6,3.6,1.4,5.6
	C73.7,39.1,71.2,39.7,69.2,38.6L69.2,38.6z M118.4,40.2c-7.5-1.8-8.8-3-8.8-5.7c0-2.5,2.3-4.2,5.8-4.2c3.4,0,6.7,1.3,10.3,3.9
	c0.1,0.1,0.2,0.1,0.4,0.1c0.1,0,0.2-0.1,0.3-0.2l3.7-5.2c0.2-0.2,0.1-0.5-0.1-0.7c-4.2-3.4-8.9-5-14.4-5c-8.1,0-13.8,4.9-13.8,11.8
	c0,7.5,4.9,10.1,13.3,12.2c7.2,1.7,8.4,3,8.4,5.5c0,2.7-2.5,4.5-6.4,4.5c-4.4,0-8-1.5-12-4.9c-0.1-0.1-0.2-0.1-0.4-0.1
	c-0.1,0-0.3,0.1-0.3,0.2l-4.1,4.9c-0.2,0.2-0.2,0.5,0,0.7c4.7,4.2,10.4,6.3,16.6,6.3c8.7,0,14.4-4.8,14.4-12.2
	C131.3,45.9,127.5,42.4,118.4,40.2L118.4,40.2z M151,32.8c-3.8,0-6.9,1.5-9.5,4.5v-3.4c0-0.3-0.2-0.5-0.5-0.5h-6.7
	c-0.3,0-0.5,0.2-0.5,0.5v38.2c0,0.3,0.2,0.5,0.5,0.5h6.7c0.3,0,0.5-0.2,0.5-0.5V60c2.6,2.9,5.7,4.3,9.5,4.3c7,0,14.2-5.4,14.2-15.8
	C165.2,38.2,158.1,32.8,151,32.8L151,32.8L151,32.8z M157.4,48.5c0,5.3-3.2,9-7.9,9c-4.6,0-8.1-3.8-8.1-9c0-5.1,3.5-9,8.1-9
	C154,39.6,157.4,43.3,157.4,48.5L157.4,48.5z M183.5,32.8c-9.1,0-16.2,7-16.2,15.9c0,8.8,7.1,15.7,16.1,15.7c9.1,0,16.2-7,16.2-15.8
	C199.6,39.7,192.5,32.8,183.5,32.8L183.5,32.8z M183.5,57.5c-4.8,0-8.5-3.9-8.5-9c0-5.2,3.5-8.9,8.3-8.9c4.9,0,8.5,3.9,8.5,9
	C191.9,53.8,188.3,57.5,183.5,57.5z M218.9,33.4h-7.4v-7.6c0-0.3-0.2-0.5-0.5-0.5h-6.7c-0.3,0-0.5,0.2-0.5,0.5v7.6h-3.2
	c-0.3,0-0.5,0.2-0.5,0.5v5.8c0,0.3,0.2,0.5,0.5,0.5h3.2v15c0,6,3,9.1,8.9,9.1c2.4,0,4.4-0.5,6.3-1.6c0.2-0.1,0.2-0.2,0.2-0.4v-5.5
	c0-0.2-0.1-0.3-0.2-0.4c-0.1-0.1-0.3-0.1-0.5,0c-1.3,0.6-2.5,1-3.9,1c-2.2,0-3.1-1-3.1-3.2V40.1h7.4c0.3,0,0.5-0.2,0.5-0.5v-5.8
	C219.4,33.6,219.2,33.4,218.9,33.4L218.9,33.4L218.9,33.4z M244.7,33.4v-0.9c0-2.7,1-4,3.4-4c1.4,0,2.5,0.3,3.8,0.7
	c0.2,0,0.3,0,0.4-0.1s0.2-0.2,0.2-0.4V23c0-0.2-0.1-0.4-0.3-0.5c-1.3-0.4-3-0.8-5.6-0.8c-6.2,0-9.5,3.5-9.5,10.1v1.4h-3.2
	c-0.3,0-0.5,0.2-0.5,0.5v5.8c0,0.3,0.2,0.5,0.5,0.5h3.2v23.1c0,0.3,0.2,0.5,0.5,0.5h6.7c0.3,0,0.5-0.2,0.5-0.5v-23h6.3l9.6,23.1
	c-1.1,2.4-2.2,2.9-3.6,2.9c-1.2,0-2.4-0.4-3.7-1.1c-0.1-0.1-0.3-0.1-0.4,0c-0.1,0-0.2,0.1-0.3,0.3l-2.3,5c-0.1,0.2,0,0.5,0.2,0.6
	c2.4,1.3,4.5,1.8,7.2,1.8c5,0,7.7-2.3,10.1-8.5L279.6,34c0.1-0.2,0-0.3-0.1-0.5c-0.1-0.1-0.2-0.2-0.4-0.2h-7c-0.2,0-0.4,0.1-0.5,0.3
	l-7.2,20.5l-7.9-20.5c-0.1-0.2-0.3-0.3-0.5-0.3L244.7,33.4L244.7,33.4L244.7,33.4z M229.8,33.4h-6.7c-0.3,0-0.5,0.2-0.5,0.5v29.3
	c0,0.3,0.2,0.5,0.5,0.5h6.7c0.3,0,0.5-0.2,0.5-0.5V33.9C230.3,33.6,230,33.4,229.8,33.4L229.8,33.4z M226.4,20
	c-2.7,0-4.8,2.2-4.8,4.8c0,2.7,2.2,4.8,4.8,4.8s4.8-2.2,4.8-4.8C231.3,22.2,229.1,20,226.4,20z M285.4,42.8c-2.7,0-4.7-2.1-4.7-4.7
	c0-2.6,2.1-4.8,4.8-4.8c2.7,0,4.7,2.1,4.7,4.7C290.1,40.6,288,42.8,285.4,42.8z M285.4,33.8c-2.4,0-4.3,1.9-4.3,4.3
	c0,2.4,1.8,4.3,4.2,4.3c2.4,0,4.3-1.9,4.3-4.3C289.6,35.7,287.8,33.8,285.4,33.8z M286.4,38.5l1.3,1.9h-1.1l-1.2-1.7h-1v1.7h-0.9v-5
	h2.2c1.2,0,1.9,0.6,1.9,1.6C287.6,37.8,287.1,38.3,286.4,38.5L286.4,38.5z M285.6,36.3h-1.2v1.6h1.2c0.6,0,1-0.3,1-0.8
	S286.3,36.3,285.6,36.3z"/>
</svg>
