<?xml version="1.0" encoding="utf-8"?>
<!-- Generator: Adobe Illustrator 27.0.1, SVG Export Plug-In . SVG Version: 6.00 Build 0)  -->
<svg version="1.1" id="Layer_1" xmlns="http://www.w3.org/2000/svg" xmlns:xlink="http://www.w3.org/1999/xlink" x="0px" y="0px"
	 viewBox="0 0 292.7 87" style="enable-background:new 0 0 292.7 87;" xml:space="preserve">
<style type="text/css">
	.st0{fill:#FF0000;}
	.st1{fill:#FFFFFF;}
	.st2{fill:#282828;}
</style>
<g>
	<g id="g7433">
		<path id="path7429" class="st0" d="M91.3,21c-1.1-4-4.2-7.1-8.2-8.2c-7.3-2-36.5-2-36.5-2s-29.2,0-36.5,1.9C6.2,13.8,3,17,1.9,21
			C0,28.3,0,43.4,0,43.4s0,15.2,1.9,22.4c1.1,4,4.2,7.1,8.2,8.2c7.4,2,36.5,2,36.5,2s29.2,0,36.5-1.9c4-1.1,7.1-4.2,8.2-8.2
			c1.9-7.3,1.9-22.4,1.9-22.4S93.3,28.3,91.3,21L91.3,21z"/>
		<path id="polygon7431" class="st1" d="M37.2,29.5v28l24.3-14L37.2,29.5z"/>
	</g>
	<g id="g7451">
		<g id="g7449">
			<path id="path7435" class="st2" d="M135.5,70.4c-1.8-1.2-3.1-3.1-3.9-5.8c-0.8-2.6-1.1-6.2-1.1-10.4v-5.9c0-4.4,0.5-7.9,1.3-10.6
				c0.9-2.7,2.3-4.6,4.2-5.8s4.4-1.8,7.5-1.8c3,0,5.5,0.6,7.3,1.8c1.8,1.2,3.1,3.2,4,5.8s1.3,6.2,1.3,10.6v5.9
				c0,4.4-0.4,7.8-1.2,10.5c-0.9,2.6-2.2,4.6-4,5.8c-1.8,1.2-4.4,1.8-7.5,1.8C139.9,72.2,137.3,71.6,135.5,70.4L135.5,70.4z
				 M145.8,63.9c0.5-1.3,0.8-3.5,0.8-6.5V44.6c0-2.9-0.2-5.1-0.8-6.5c-0.5-1.4-1.4-2-2.7-2c-1.2,0-2.2,0.7-2.6,2
				c-0.5,1.4-0.8,3.5-0.8,6.5v12.8c0,3,0.2,5.2,0.8,6.5c0.5,1.3,1.4,2,2.7,2C144.4,65.9,145.3,65.3,145.8,63.9z"/>
			<path id="path7437" class="st2" d="M277.4,54.1v2.1c0,2.6,0.1,4.6,0.2,5.9c0.2,1.3,0.5,2.3,1,2.9s1.2,0.9,2.3,0.9
				c1.4,0,2.3-0.5,2.9-1.6c0.5-1.1,0.8-2.9,0.9-5.4l7.9,0.5c0.1,0.4,0.1,0.9,0.1,1.5c0,3.8-1,6.6-3.1,8.5c-2.1,1.8-5,2.8-8.8,2.8
				c-4.5,0-7.7-1.5-9.5-4.3s-2.8-7.2-2.8-13.2v-7.1c0-6.2,0.9-10.6,2.9-13.5c1.9-2.9,5.1-4.2,9.7-4.2c3.1,0,5.6,0.6,7.3,1.8
				c1.7,1.2,2.9,3,3.5,5.4c0.7,2.5,1,5.8,1,10.2v7h-15.5V54.1L277.4,54.1z M278.6,36.9c-0.5,0.6-0.8,1.5-0.9,2.9
				c-0.2,1.3-0.2,3.3-0.2,6v2.9h6.8v-2.9c0-2.6-0.1-4.6-0.2-6c-0.2-1.4-0.5-2.3-1-2.9c-0.5-0.5-1.2-0.9-2.2-0.9
				C279.8,36,279.1,36.3,278.6,36.9L278.6,36.9z"/>
			<path id="path7439" class="st2" d="M113,53.4l-10.5-38h9.1l3.7,17.1c0.9,4.2,1.6,7.8,2.1,10.9h0.2c0.3-2.2,1-5.7,2.1-10.8
				l3.8-17.2h9.1L122,53.3v18.2h-9.1L113,53.4L113,53.4L113,53.4z"/>
			<path id="path7441" class="st2" d="M185.7,30.6v41h-7.2l-0.8-5h-0.2c-1.9,3.8-4.9,5.7-8.9,5.7c-2.7,0-4.7-0.9-6-2.7
				c-1.3-1.8-1.9-4.5-1.9-8.4V30.6h9.2v30.1c0,1.8,0.2,3.1,0.6,3.9c0.4,0.8,1.1,1.1,2,1.1c0.8,0,1.5-0.2,2.3-0.8
				c0.8-0.5,1.3-1.1,1.6-1.8V30.6H185.7z"/>
			<path id="path7443" class="st2" d="M233,30.6v41h-7.2l-0.8-5h-0.2c-1.9,3.8-4.9,5.7-8.9,5.7c-2.7,0-4.7-0.9-6-2.7
				c-1.3-1.8-1.9-4.5-1.9-8.4V30.6h9.2v30.1c0,1.8,0.2,3.1,0.6,3.9c0.4,0.8,1.1,1.1,2,1.1c0.8,0,1.5-0.2,2.3-0.8
				c0.8-0.5,1.3-1.1,1.6-1.8V30.6H233z"/>
			<path id="path7445" class="st2" d="M210.8,22.9h-9.1v48.6h-9V22.9h-9.2v-7.5h27.3V22.9z"/>
			<path id="path7447" class="st2" d="M263.5,37.1c-0.5-2.6-1.5-4.5-2.7-5.6s-3-1.8-5.1-1.8c-1.7,0-3.3,0.5-4.8,1.5
				c-1.5,0.9-2.6,2.2-3.4,3.8l0,0V13.4h-9v58.2h7.6l0.9-3.8h0.2c0.7,1.4,1.8,2.5,3.2,3.3c1.5,0.8,3,1.2,4.8,1.2
				c3.1,0,5.4-1.5,6.9-4.3c1.5-2.9,2.2-7.4,2.2-13.5V48C264.3,43.3,264.1,39.7,263.5,37.1L263.5,37.1z M255.1,53.8
				c0,3-0.2,5.3-0.4,7s-0.7,2.9-1.2,3.6c-0.6,0.7-1.4,1.1-2.3,1.1c-0.8,0-1.5-0.2-2.1-0.5s-1.1-0.9-1.5-1.6V40.1
				c0.3-1.1,0.9-2,1.6-2.8c0.8-0.7,1.6-1.1,2.5-1.1s1.7,0.4,2.2,1.1c0.5,0.8,0.9,2,1.1,3.7c0.2,1.8,0.3,4.2,0.3,7.4v5.4L255.1,53.8
				L255.1,53.8z"/>
		</g>
	</g>
</g>
</svg>
