<?xml version="1.0" encoding="utf-8"?>
<!-- Generator: Adobe Illustrator 27.0.1, SVG Export Plug-In . SVG Version: 6.00 Build 0)  -->
<svg version="1.1" id="Layer_1" xmlns="http://www.w3.org/2000/svg" xmlns:xlink="http://www.w3.org/1999/xlink" x="0px" y="0px"
	 viewBox="0 0 93.2 87" style="enable-background:new 0 0 93.2 87;" xml:space="preserve">
<style type="text/css">
	.st0{fill:#FF0000;}
	.st1{fill:#FFFFFF;}
</style>
<g>
	<g id="g7433">
		<path id="path7429" class="st0" d="M91.3,21c-1.1-4-4.2-7.1-8.2-8.2c-7.3-2-36.5-2-36.5-2s-29.2,0-36.5,1.9C6.2,13.8,3,17,1.9,21
			C0,28.3,0,43.4,0,43.4s0,15.2,1.9,22.4c1.1,4,4.2,7.1,8.2,8.2c7.4,2,36.5,2,36.5,2s29.2,0,36.5-1.9c4-1.1,7.1-4.2,8.2-8.2
			c1.9-7.3,1.9-22.4,1.9-22.4S93.3,28.3,91.3,21L91.3,21z"/>
		<path id="polygon7431" class="st1" d="M37.2,29.5v28l24.3-14L37.2,29.5z"/>
	</g>
</g>
</svg>
