<?xml version="1.0" encoding="utf-8"?>
<!-- Generator: Adobe Illustrator 27.0.1, SVG Export Plug-In . SVG Version: 6.00 Build 0)  -->
<svg version="1.1" id="Layer_1" xmlns="http://www.w3.org/2000/svg" xmlns:xlink="http://www.w3.org/1999/xlink" x="0px" y="0px"
	 viewBox="0 0 42.7 30" style="enable-background:new 0 0 42.7 30;" xml:space="preserve">
<path d="M41.8,4.7L41.8,4.7c-0.5-1.8-1.9-3.3-3.8-3.8C34.7,0,21.3,0,21.3,0S8,0,4.7,0.9C2.8,1.4,1.4,2.8,0.9,4.7C0,8,0,15,0,15
	s0,7,0.9,10.3c0.5,1.8,1.9,3.3,3.8,3.8C8,30,21.3,30,21.3,30s13.3,0,16.7-0.9c1.8-0.5,3.3-1.9,3.8-3.8C42.7,22,42.7,15,42.7,15
	S42.7,8,41.8,4.7z M17.1,21.4V8.6L28.1,15L17.1,21.4z"/>
</svg>
