<?xml version="1.0" standalone="no"?>
<!DOCTYPE svg PUBLIC "-//W3C//DTD SVG 20010904//EN"
 "http://www.w3.org/TR/2001/REC-SVG-20010904/DTD/svg10.dtd">
<svg version="1.0" xmlns="http://www.w3.org/2000/svg"
 width="500.000000pt" height="500.000000pt" viewBox="0 0 500.000000 500.000000"
 preserveAspectRatio="xMidYMid meet">

<g transform="translate(0.000000,500.000000) scale(0.100000,-0.100000)"
fill="#000000" stroke="none">
<path d="M2022 3005 c3 -197 5 -230 18 -230 13 0 15 30 15 213 -1 187 -3 214
-18 229 -16 17 -17 6 -15 -212z"/>
<path d="M1230 3182 c0 -51 -14 -62 -82 -62 -46 0 -59 -4 -68 -19 -6 -12 -10
-107 -10 -238 0 -237 -1 -242 -55 -244 -16 0 -39 -4 -50 -8 -19 -8 -19 -8 2
-19 32 -17 109 -15 127 4 14 13 16 49 16 234 0 120 3 225 6 234 5 12 21 16 70
16 52 0 65 3 74 19 14 27 13 94 -2 109 -20 20 -28 13 -28 -26z"/>
<path d="M1725 3178 c-4 -24 -13 -46 -19 -50 -6 -4 -54 -8 -106 -8 -101 0
-120 -7 -120 -45 0 -20 17 -45 31 -45 4 0 10 11 13 25 6 25 8 25 109 25 56 0
108 4 115 9 9 5 12 26 10 66 -4 71 -23 84 -33 23z"/>
<path d="M2505 3177 c-4 -24 -5 -116 -3 -205 2 -137 6 -164 21 -179 16 -16 17
-7 17 189 0 114 -3 213 -6 222 -11 28 -23 17 -29 -27z"/>
<path d="M2860 3016 c0 -161 -3 -216 -16 -253 -32 -96 -105 -144 -229 -151
-60 -3 -90 0 -119 12 -63 26 -53 11 15 -23 135 -68 308 -21 362 98 19 40 22
67 23 216 2 198 -6 297 -23 303 -10 3 -13 -42 -13 -202z"/>
<path d="M3858 3088 c-5 -227 -1 -279 19 -299 17 -18 18 -11 15 184 -2 210 -6
247 -22 247 -6 0 -11 -54 -12 -132z"/>
<path d="M4208 2993 l-3 -228 -28 -47 c-42 -72 -99 -101 -208 -106 -67 -3 -95
-1 -120 12 -38 19 -42 20 -33 5 15 -25 110 -59 165 -59 114 0 199 43 242 124
20 37 22 58 25 240 4 217 -1 286 -23 286 -11 0 -14 -43 -17 -227z"/>
<path d="M3571 3107 c21 -46 7 -57 -67 -57 -66 0 -67 0 -49 -20 15 -16 31 -20
87 -20 50 0 70 4 74 14 6 17 -21 79 -42 97 -13 11 -13 9 -3 -14z"/>
<path d="M790 3110 c0 -14 44 -30 81 -30 31 0 41 23 13 34 -26 10 -94 7 -94
-4z"/>
<path d="M3203 3099 c-67 -43 -93 -160 -54 -245 22 -48 47 -71 31 -29 -18 48
-12 136 13 179 35 63 68 81 143 81 35 0 64 1 64 2 0 1 -13 9 -30 18 -43 22
-128 19 -167 -6z"/>
<path d="M1704 2933 l-9 -48 -95 -3 c-51 -1 -100 -8 -107 -14 -16 -13 -17 -70
-1 -86 17 -17 28 -15 28 7 0 47 7 51 104 51 50 0 97 4 103 8 14 9 20 102 9
120 -14 23 -24 12 -32 -35z"/>
<path d="M3607 2924 c-3 -11 -8 -40 -12 -66 -7 -57 -47 -134 -83 -166 -15 -12
-49 -35 -77 -50 -46 -25 -59 -27 -155 -27 -94 0 -109 3 -145 25 -27 16 -36 19
-26 7 7 -9 38 -29 70 -44 49 -24 68 -28 146 -28 72 0 100 5 141 23 102 46 165
142 167 258 2 63 -15 107 -26 68z"/>
<path d="M3358 2843 c-35 -9 -11 -33 32 -33 25 0 36 20 19 31 -15 9 -23 10
-51 2z"/>
<path d="M2254 2679 l-9 -54 -167 -5 c-91 -3 -170 -9 -174 -13 -20 -20 34 -27
201 -24 l180 2 3 55 c2 35 -2 62 -11 74 -13 17 -15 14 -23 -35z"/>
<path d="M1734 2674 c-3 -25 -12 -47 -18 -50 -6 -2 -84 -5 -173 -6 -89 -2
-165 -7 -169 -11 -21 -20 34 -27 206 -24 l185 2 3 44 c7 89 -21 126 -34 45z"/>
<path d="M2928 2348 c-3 -20 -10 -24 -58 -28 -45 -4 -55 -9 -58 -25 -3 -16 -1
-18 9 -7 7 6 37 12 66 12 l53 0 0 35 c0 39 -7 47 -12 13z"/>
<path d="M3561 2348 c-1 -24 -5 -27 -38 -30 l-38 -3 -3 -122 c-2 -113 -4 -123
-22 -123 -10 0 -22 -5 -25 -11 -5 -7 5 -9 26 -7 l34 3 3 123 3 122 35 0 c39 0
52 19 36 53 -10 21 -11 21 -11 -5z"/>
<path d="M2311 2335 c-2 -16 -4 -81 -5 -143 -1 -87 -4 -115 -16 -122 -12 -8
-12 -10 3 -16 10 -3 20 -4 23 -2 2 3 3 74 1 159 -1 85 -4 141 -6 124z"/>
<path d="M2661 2335 c-2 -16 -4 -81 -5 -143 -1 -87 -4 -115 -16 -122 -12 -8
-12 -10 3 -16 10 -3 20 -4 23 -2 2 3 3 74 1 159 -1 85 -4 141 -6 124z"/>
<path d="M1395 2295 c-26 -25 -33 -77 -15 -105 7 -11 10 -4 10 28 0 54 26 82
78 82 27 0 33 3 22 10 -27 17 -70 11 -95 -15z"/>
<path d="M3093 2305 c-26 -18 -40 -77 -25 -108 10 -20 11 -19 11 14 1 53 33
89 79 89 28 0 33 3 22 10 -22 14 -63 12 -87 -5z"/>
<path d="M3350 2310 c20 -13 40 -13 40 0 0 6 -12 10 -27 10 -22 0 -25 -2 -13
-10z"/>
<path d="M3673 2305 c-9 -26 3 -27 38 -6 l34 21 -33 0 c-20 0 -35 -6 -39 -15z"/>
<path d="M3837 2306 c-3 -8 -18 -16 -34 -19 -23 -3 -22 -4 10 -6 31 -1 37 2
37 19 0 23 -6 26 -13 6z"/>
<path d="M1598 2293 c-4 -14 -16 -23 -34 -26 -22 -3 -18 -4 14 -6 44 -1 46 1
33 33 -7 19 -8 19 -13 -1z"/>
<path d="M1748 2293 c-23 -26 -30 -57 -19 -84 9 -23 10 -23 10 7 1 38 41 81
79 87 19 3 15 4 -14 6 -28 1 -46 -5 -56 -16z"/>
<path d="M1968 2244 c3 -60 1 -74 -20 -104 -34 -52 -101 -83 -163 -76 -40 4
-45 3 -25 -5 39 -16 106 -12 147 8 70 34 103 138 70 217 -12 27 -12 23 -9 -40z"/>
<path d="M3288 2292 c-3 -11 -16 -22 -29 -25 -16 -3 -12 -5 14 -6 37 -1 46 10
28 37 -6 11 -9 9 -13 -6z"/>
<path d="M2918 2230 c-3 -22 -8 -25 -55 -28 -50 -3 -53 -4 -53 -30 1 -23 2
-25 11 -9 7 12 23 17 58 17 42 0 50 3 54 22 3 12 2 28 -3 37 -6 12 -9 10 -12
-9z"/>
<path d="M2110 2147 c0 -75 0 -77 -25 -77 -14 0 -25 -5 -25 -11 0 -6 14 -9 33
-7 l32 3 3 74 c2 42 -2 79 -8 85 -7 7 -10 -13 -10 -67z"/>
<path d="M2460 2147 c0 -75 0 -77 -25 -77 -14 0 -25 -5 -25 -11 0 -6 14 -9 33
-7 l32 3 3 74 c2 42 -2 79 -8 85 -7 7 -10 -13 -10 -67z"/>
<path d="M3670 2191 c20 -11 96 -22 84 -12 -5 5 -29 11 -54 15 -27 3 -39 3
-30 -3z"/>
<path d="M3851 2172 c-3 -69 -80 -121 -158 -109 -26 5 -33 3 -23 -3 8 -5 38
-10 66 -10 87 0 142 54 123 120 -7 24 -7 24 -8 2z"/>
<path d="M1585 2137 c-35 -53 -70 -72 -135 -72 -32 0 -53 -3 -47 -7 7 -4 37
-8 67 -8 65 0 111 24 135 71 22 42 5 55 -20 16z"/>
<path d="M3279 2137 c-22 -47 -90 -80 -153 -74 -35 3 -44 2 -31 -5 9 -6 46 -8
81 -6 68 4 106 28 125 77 15 37 -4 44 -22 8z"/>
<path d="M2930 2090 c0 -18 -7 -20 -85 -20 -52 0 -85 -4 -85 -10 0 -7 33 -10
93 -8 l92 3 3 28 c2 15 -1 27 -7 27 -6 0 -11 -9 -11 -20z"/>
</g>
</svg>
